<svg xmlns="http://www.w3.org/2000/svg" xmlns:xlink="http://www.w3.org/1999/xlink" xml:space="preserve" version="1.1" style="shape-rendering:geometricPrecision;text-rendering:geometricPrecision;image-rendering:optimizeQuality;" viewBox="0 0 8.57 10.7125" x="0px" y="0px" fill-rule="evenodd" clip-rule="evenodd"><defs><style type="text/css">
   
    .fil0 {fill:black}
   
  </style></defs><g><path class="fil0" d="M5.09 2.68l0 -0.27 -0.27 0 0 -0.27 -0.27 0 0 1.07 -3.21 0 0 1.88 3.21 0 0 1.07 0.27 0 0 -0.27 0.27 0 0 -0.27 0.26 0 0 -0.27 0.27 0 0 -0.26 0.27 0 0 -0.27 0.27 0 0 -0.27 0.26 0 0 1.61 0.81 0 0 -4.02 -0.81 0 0 1.61 -0.26 0 0 -0.27 -0.27 0 0 -0.27 -0.27 0 0 -0.27 -0.27 0 0 -0.26 -0.26 0zm2.14 4.55l-0.27 0 0 0.27 -0.27 0 0 0.26 -0.53 0 0 0.27 -0.81 0 0 0.27 -2.14 0 0 -0.27 -0.8 0 0 -0.27 -0.54 0 0 -0.26 -0.26 0 0 -0.27 -0.27 0 0 -0.27 -0.27 0 0 -0.27 -0.27 0 0 -0.53 -0.26 0 0 -0.81 -0.27 0 0 -2.14 0.27 0 0 -0.8 0.26 0 0 -0.54 0.27 0 0 -0.26 0.27 0 0 -0.27 0.27 0 0 -0.27 0.26 0 0 -0.27 0.54 0 0 -0.26 0.8 0 0 -0.27 2.14 0 0 0.27 0.81 0 0 0.26 0.53 0 0 0.27 0.27 0 0 0.27 0.27 0 0 0.27 0.27 0 0 0.26 0.26 0 0 0.54 0.27 0 0 0.8 0.27 0 0 2.14 -0.27 0 0 0.81 -0.27 0 0 0.53 -0.26 0 0 0.27 -0.27 0 0 0.27zm-0.27 0.27l0.27 0 0 -0.27 0.27 0 0 -0.27 0.26 0 0 -0.27 0.27 0 0 -0.53 0.27 0 0 -0.81 0.27 0 0 -2.14 -0.27 0 0 -0.8 -0.27 0 0 -0.54 -0.27 0 0 -0.26 -0.26 0 0 -0.27 -0.27 0 0 -0.27 -0.27 0 0 -0.27 -0.27 0 0 -0.26 -0.53 0 0 -0.27 -0.81 0 0 -0.27 -2.14 0 0 0.27 -0.8 0 0 0.27 -0.54 0 0 0.26 -0.26 0 0 0.27 -0.27 0 0 0.27 -0.27 0 0 0.27 -0.27 0 0 0.26 -0.26 0 0 0.54 -0.27 0 0 0.8 -0.27 0 0 2.14 0.27 0 0 0.81 0.27 0 0 0.53 0.26 0 0 0.27 0.27 0 0 0.27 0.27 0 0 0.27 0.27 0 0 0.26 0.26 0 0 0.27 0.54 0 0 0.27 0.8 0 0 0.27 2.14 0 0 -0.27 0.81 0 0 -0.27 0.53 0 0 -0.27 0.27 0 0 -0.26z"/></g><text x="0" y="23.57" fill="#000000" font-size="5px" font-weight="bold" font-family="'Helvetica Neue', Helvetica, Arial-Unicode, Arial, Sans-serif">Created by Michał Kamiński</text><text x="0" y="28.57" fill="#000000" font-size="5px" font-weight="bold" font-family="'Helvetica Neue', Helvetica, Arial-Unicode, Arial, Sans-serif">from the Noun Project</text></svg>