<svg xmlns="http://www.w3.org/2000/svg" xmlns:xlink="http://www.w3.org/1999/xlink" xml:space="preserve" version="1.1" style="shape-rendering:geometricPrecision;text-rendering:geometricPrecision;image-rendering:optimizeQuality;" viewBox="0 0 5.53 6.9125000000000005" x="0px" y="0px" fill-rule="evenodd" clip-rule="evenodd"><defs><style type="text/css">
   
    .fil0 {fill:black}
   
  </style></defs><g><path class="fil0" d="M3.45 5.35l-1.38 0 0 -0.17 -0.52 0 0 -0.17 -0.34 0 0 -0.18 -0.17 0 0 -0.17 -0.18 0 0 -0.17 -0.17 0 0 -0.17 -0.17 0 0 -0.35 -0.17 0 0 -0.52 -0.18 0 0 -1.38 0.18 0 0 -0.52 0.17 0 0 -0.34 0.17 0 0 -0.17 0.17 0 0 -0.18 0.18 0 0 -0.17 0.17 0 0 -0.17 0.34 0 0 -0.17 0.52 0 0 -0.18 1.38 0 0 0.18 0.52 0 0 0.17 0.35 0 0 0.17 0.17 0 0 0.17 0.17 0 0 0.18 0.17 0 0 0.17 0.18 0 0 0.34 0.17 0 0 0.52 0.17 0 0 1.38 -0.17 0 0 0.52 -0.17 0 0 0.35 -0.18 0 0 0.17 -0.17 0 0 0.17 -0.17 0 0 0.17 -0.17 0 0 0.18 -0.35 0 0 0.17 -0.52 0 0 0.17zm-2.59 -0.69l0 0.17 0.18 0 0 0.18 0.17 0 0 0.17 0.34 0 0 0.17 0.52 0 0 0.18 1.38 0 0 -0.18 0.52 0 0 -0.17 0.35 0 0 -0.17 0.17 0 0 -0.18 0.17 0 0 -0.17 0.17 0 0 -0.17 0.18 0 0 -0.17 0.17 0 0 -0.35 0.17 0 0 -0.52 0.18 0 0 -1.38 -0.18 0 0 -0.52 -0.17 0 0 -0.34 -0.17 0 0 -0.17 -0.18 0 0 -0.18 -0.17 0 0 -0.17 -0.17 0 0 -0.17 -0.17 0 0 -0.17 -0.35 0 0 -0.18 -0.52 0 0 -0.17 -1.38 0 0 0.17 -0.52 0 0 0.18 -0.34 0 0 0.17 -0.17 0 0 0.17 -0.18 0 0 0.17 -0.17 0 0 0.18 -0.17 0 0 0.17 -0.17 0 0 0.34 -0.18 0 0 0.52 -0.17 0 0 1.38 0.17 0 0 0.52 0.18 0 0 0.35 0.17 0 0 0.17 0.17 0 0 0.17 0.17 0zm2.77 -2.07l0 -0.17 -0.35 0 0 -0.18 -0.34 0 0 -0.17 -0.35 0 0 -0.17 -0.35 0 0 -0.17 -0.34 0 0 -0.18 -0.17 0 0 2.59 0.17 0 0 -0.17 0.34 0 0 -0.17 0.35 0 0 -0.17 0.35 0 0 -0.18 0.34 0 0 -0.17 0.35 0 0 -0.17 0.34 0 0 -0.17 0.17 0 0 -0.18 -0.17 0 0 -0.17 -0.34 0z"/></g><text x="0" y="20.53" fill="#000000" font-size="5px" font-weight="bold" font-family="'Helvetica Neue', Helvetica, Arial-Unicode, Arial, Sans-serif">Created by Michał Kamiński</text><text x="0" y="25.53" fill="#000000" font-size="5px" font-weight="bold" font-family="'Helvetica Neue', Helvetica, Arial-Unicode, Arial, Sans-serif">from the Noun Project</text></svg>