<svg xmlns="http://www.w3.org/2000/svg" xmlns:xlink="http://www.w3.org/1999/xlink" xml:space="preserve" version="1.1" style="shape-rendering:geometricPrecision;text-rendering:geometricPrecision;image-rendering:optimizeQuality;" viewBox="0 0 7.27 9.087499999999999" x="0px" y="0px" fill-rule="evenodd" clip-rule="evenodd"><defs><style type="text/css">
   
    .fil0 {fill:black}
   
  </style></defs><g><path class="fil0" d="M2.95 2.27l-0.22 0 0 0.23 -0.23 0 0 0.23 -0.23 0 0 0.22 -0.23 0 0 0.23 -0.22 0 0 -1.36 -0.68 0 0 3.41 0.68 0 0 -1.37 0.22 0 0 0.23 0.23 0 0 0.23 0.23 0 0 0.22 0.23 0 0 0.23 0.22 0 0 0.23 0.23 0 0 0.23 0.23 0 0 -0.91 2.72 0 0 -1.59 -2.72 0 0 -0.91 -0.23 0 0 0.22 -0.23 0 0 0.23zm-1.59 4.09l0 -0.23 -0.22 0 0 -0.22 -0.23 0 0 -0.23 -0.23 0 0 -0.45 -0.23 0 0 -0.69 -0.22 0 0 -1.81 0.22 0 0 -0.69 0.23 0 0 -0.45 0.23 0 0 -0.23 0.23 0 0 -0.22 0.22 0 0 -0.23 0.23 0 0 -0.23 0.45 0 0 -0.23 0.69 0 0 -0.22 1.81 0 0 0.22 0.69 0 0 0.23 0.45 0 0 0.23 0.23 0 0 0.23 0.22 0 0 0.22 0.23 0 0 0.23 0.23 0 0 0.45 0.23 0 0 0.69 0.22 0 0 1.81 -0.22 0 0 0.69 -0.23 0 0 0.45 -0.23 0 0 0.23 -0.23 0 0 0.22 -0.22 0 0 0.23 -0.23 0 0 0.23 -0.45 0 0 0.23 -0.69 0 0 0.22 -1.81 0 0 -0.22 -0.69 0 0 -0.23 -0.45 0 0 -0.23 -0.23 0zm-0.22 -0.23l0 0.23 0.22 0 0 0.23 0.23 0 0 0.23 0.45 0 0 0.22 0.69 0 0 0.23 1.81 0 0 -0.23 0.69 0 0 -0.22 0.45 0 0 -0.23 0.23 0 0 -0.23 0.22 0 0 -0.23 0.23 0 0 -0.22 0.23 0 0 -0.23 0.23 0 0 -0.45 0.22 0 0 -0.69 0.23 0 0 -1.81 -0.23 0 0 -0.69 -0.22 0 0 -0.45 -0.23 0 0 -0.23 -0.23 0 0 -0.22 -0.23 0 0 -0.23 -0.22 0 0 -0.23 -0.23 0 0 -0.23 -0.45 0 0 -0.22 -0.69 0 0 -0.23 -1.81 0 0 0.23 -0.69 0 0 0.22 -0.45 0 0 0.23 -0.23 0 0 0.23 -0.22 0 0 0.23 -0.23 0 0 0.22 -0.23 0 0 0.23 -0.23 0 0 0.45 -0.22 0 0 0.69 -0.23 0 0 1.81 0.23 0 0 0.69 0.22 0 0 0.45 0.23 0 0 0.23 0.23 0 0 0.22 0.23 0z"/></g><text x="0" y="22.27" fill="#000000" font-size="5px" font-weight="bold" font-family="'Helvetica Neue', Helvetica, Arial-Unicode, Arial, Sans-serif">Created by Michał Kamiński</text><text x="0" y="27.27" fill="#000000" font-size="5px" font-weight="bold" font-family="'Helvetica Neue', Helvetica, Arial-Unicode, Arial, Sans-serif">from the Noun Project</text></svg>