<svg xmlns="http://www.w3.org/2000/svg" xmlns:xlink="http://www.w3.org/1999/xlink" xml:space="preserve" version="1.1" style="shape-rendering:geometricPrecision;text-rendering:geometricPrecision;image-rendering:optimizeQuality;" viewBox="0 0 6.3 7.875" x="0px" y="0px" fill-rule="evenodd" clip-rule="evenodd"><defs><style type="text/css">
   
    .fil0 {fill:black}
   
  </style></defs><g><path class="fil0" d="M1.97 4.33l2.36 0 0 -2.36 -2.36 0 0 2.36zm3.54 0.79l-0.19 0 0 0.2 -0.2 0 0 0.19 -0.2 0 0 0.2 -0.39 0 0 0.2 -0.59 0 0 0.2 -1.58 0 0 -0.2 -0.59 0 0 -0.2 -0.39 0 0 -0.2 -0.2 0 0 -0.19 -0.2 0 0 -0.2 -0.19 0 0 -0.2 -0.2 0 0 -0.39 -0.2 0 0 -0.59 -0.19 0 0 -1.58 0.19 0 0 -0.59 0.2 0 0 -0.39 0.2 0 0 -0.2 0.19 0 0 -0.2 0.2 0 0 -0.19 0.2 0 0 -0.2 0.39 0 0 -0.2 0.59 0 0 -0.19 1.58 0 0 0.19 0.59 0 0 0.2 0.39 0 0 0.2 0.2 0 0 0.19 0.2 0 0 0.2 0.19 0 0 0.2 0.2 0 0 0.39 0.2 0 0 0.59 0.2 0 0 1.58 -0.2 0 0 0.59 -0.2 0 0 0.39 -0.2 0 0 0.2zm-0.19 0.2l0.19 0 0 -0.2 0.2 0 0 -0.2 0.2 0 0 -0.39 0.2 0 0 -0.59 0.19 0 0 -1.58 -0.19 0 0 -0.59 -0.2 0 0 -0.39 -0.2 0 0 -0.2 -0.2 0 0 -0.2 -0.19 0 0 -0.19 -0.2 0 0 -0.2 -0.2 0 0 -0.2 -0.39 0 0 -0.19 -0.59 0 0 -0.2 -1.58 0 0 0.2 -0.59 0 0 0.19 -0.39 0 0 0.2 -0.2 0 0 0.2 -0.2 0 0 0.19 -0.19 0 0 0.2 -0.2 0 0 0.2 -0.2 0 0 0.39 -0.19 0 0 0.59 -0.2 0 0 1.58 0.2 0 0 0.59 0.19 0 0 0.39 0.2 0 0 0.2 0.2 0 0 0.2 0.19 0 0 0.19 0.2 0 0 0.2 0.2 0 0 0.2 0.39 0 0 0.2 0.59 0 0 0.19 1.58 0 0 -0.19 0.59 0 0 -0.2 0.39 0 0 -0.2 0.2 0 0 -0.2 0.2 0 0 -0.19z"/></g><text x="0" y="21.3" fill="#000000" font-size="5px" font-weight="bold" font-family="'Helvetica Neue', Helvetica, Arial-Unicode, Arial, Sans-serif">Created by Michał Kamiński</text><text x="0" y="26.3" fill="#000000" font-size="5px" font-weight="bold" font-family="'Helvetica Neue', Helvetica, Arial-Unicode, Arial, Sans-serif">from the Noun Project</text></svg>